<svg data-name="Layer 1" xmlns="http://www.w3.org/2000/svg" viewBox="0 0 281.07 97.76"><path d="M.08 76.54V4h25.41q13.2 0 20 5t6.83 14.83a16.45 16.45 0 0 1-2.74 9.39 15.8 15.8 0 0 1-7.63 6 15.35 15.35 0 0 1 8.8 5.64A16.63 16.63 0 0 1 54 55.21q0 10.47-6.67 15.85t-19 5.48zM15 34.38h11.09q11.31-.2 11.31-9c0-3.29-1-5.65-2.87-7.1s-4.92-2.17-9-2.17H15zM15 45v19.53h12.8q5.28 0 8.25-2.52a8.64 8.64 0 0 0 3-6.95Q39 45.1 28.73 45zm77.51-8.87a38.47 38.47 0 0 0-5.18-.4q-8.17 0-10.71 5.53v35.28h-14.4V22.62h13.6l.4 6.43q4.34-7.43 12-7.42a15.12 15.12 0 0 1 4.48.64zM97.3 8.67a7.09 7.09 0 0 1 2.16-5.33 9.36 9.36 0 0 1 11.79 0 7 7 0 0 1 2.19 5.33 7.06 7.06 0 0 1-2.22 5.38 9.25 9.25 0 0 1-11.71 0 7.09 7.09 0 0 1-2.21-5.38zm15.29 67.87H98.14V22.62h14.45zm7.58-27.36q0-12.6 5.66-20.08t15.47-7.47a16.52 16.52 0 0 1 13 5.87V0h14.45v76.54h-13l-.7-5.73a17 17 0 0 1-13.85 6.72A18.28 18.28 0 0 1 125.93 70q-5.76-7.45-5.76-20.82zm14.4 1.07q0 7.59 2.64 11.63a8.59 8.59 0 0 0 7.68 4q6.68 0 9.41-5.64V39c-1.79-3.75-4.9-5.64-9.31-5.64q-10.42-.03-10.42 16.89zm41.21-1.07q0-12.41 5.91-20a19.11 19.11 0 0 1 15.92-7.57q8.87 0 13.8 6.07l.6-5.08h13.05v52.14a23.07 23.07 0 0 1-3.21 12.31 20.56 20.56 0 0 1-9 8 31.7 31.7 0 0 1-13.65 2.74 29.69 29.69 0 0 1-11.56-2.36 20.6 20.6 0 0 1-8.52-6.11l6.38-8.77a16.87 16.87 0 0 0 13.05 6c3.82 0 6.8-1 8.92-3.06s3.19-4.94 3.19-8.7V71.9a16.63 16.63 0 0 1-13.1 5.63 19.06 19.06 0 0 1-15.72-7.6q-6-7.59-6-20.15zm14.4 1.07q0 7.34 2.94 11.51a9.36 9.36 0 0 0 8.07 4.16q6.59 0 9.42-4.94v-22.7q-2.9-5-9.32-5a9.4 9.4 0 0 0-8.14 4.25q-2.97 4.3-2.97 12.72zm68.72 27.28q-11.86 0-19.31-7.27t-7.45-19.39v-1.39A32.65 32.65 0 0 1 235.28 35a23.09 23.09 0 0 1 8.89-9.86 25 25 0 0 1 13.13-3.46q11.07 0 17.42 7t6.35 19.78v5.88h-34.33a13.35 13.35 0 0 0 4.26 8.39 12.72 12.72 0 0 0 8.9 3.19q8.31 0 13-6l7.08 7.93a21.71 21.71 0 0 1-8.82 7.15 28.81 28.81 0 0 1-12.26 2.53zm-1.65-44.29a9 9 0 0 0-6.95 2.9q-2.66 2.89-3.41 8.31h20V43.3c-.07-3.21-.93-5.68-2.59-7.44s-3.99-2.62-7.05-2.62z" fill="#003059"/></svg>